<svg width="240" height="240" viewBox="0 0 240 240" fill="none" xmlns="http://www.w3.org/2000/svg">
<g id="FacingLaptopSVG">
<g clip-path="url(#clip0_135_2)">
<g id="Desk">
<g id="DeskTable">
<path d="M234 124.08H226.981V166.04V203C226.981 204.105 226.085 205 224.981 205H166.346C165.241 205 164.346 204.105 164.346 203V166.04V124.08H11.5162H6C4.89543 124.08 4 123.185 4 122.08V110C4 108.895 4.89543 108 6 108H234C235.105 108 236 108.895 236 110V122.08C236 123.185 235.105 124.08 234 124.08Z" fill="#0c2732ff"/>
<path d="M226.981 124.08H234C235.105 124.08 236 123.185 236 122.08V110C236 108.895 235.105 108 234 108H6C4.89543 108 4 108.895 4 110V122.08C4 123.185 4.89543 124.08 6 124.08H11.5162M226.981 124.08H164.346M226.981 124.08V166.04M11.5162 124.08V208M11.5162 124.08H164.346M164.346 124.08V166.04M226.981 166.04V203C226.981 204.105 226.085 205 224.981 205H166.346C165.241 205 164.346 204.105 164.346 203V166.04M226.981 166.04H164.346" stroke="#0c2732ff" stroke-width="4"/>
</g>
<path id="DrawLine2" d="M189 182H203" stroke="#66d7d1ff" stroke-width="4" stroke-linecap="round"/>
<path id="DrawLine1" d="M189 140H203" stroke="#66d7d1ff" stroke-width="4" stroke-linecap="round"/>
</g>
<g id="Bin">
<path fill-rule="evenodd" clip-rule="evenodd" d="M59.2367 203.008L61.785 173.491C61.9066 172.082 63.0858 171 64.5 171H62H29H26.2081C27.7814 171 29.0874 172.215 29.2003 173.785L31.2997 202.965C31.4126 204.535 32.7186 205.75 34.2919 205.75H56.2478C57.8047 205.75 59.1028 204.559 59.2367 203.008Z" fill="#0c2732ff"/>
<path d="M62 171H64.5V168H26V170.792C26 170.907 26.0932 171 26.2081 171V171H29H62Z" fill="#66d7d1ff"/>
</g>
<g id="Monitor">
<g id="MonitorCase">
<path d="M127 95C127 94.1716 126.328 93.5 125.5 93.5H114.5C113.672 93.5 113 94.1716 113 95M126.229 108H113.771C111.842 108 110.414 106.205 110.848 104.325L113 95H73C71.3431 95 70 93.6569 70 92V38C70 36.3431 71.3431 35 73 35H167C168.657 35 170 36.3431 170 38V92C170 93.6569 168.657 95 167 95H127L129.152 104.325C129.586 106.205 128.158 108 126.229 108Z" fill="#0c2732ff"/>
<path d="M127 95C127 94.1716 126.328 93.5 125.5 93.5H114.5C113.672 93.5 113 94.1716 113 95M126.229 108H113.771C111.842 108 110.414 106.205 110.848 104.325L113 95H73C71.3431 95 70 93.6569 70 92V38C70 36.3431 71.3431 35 73 35H167C168.657 35 170 36.3431 170 38V92C170 93.6569 168.657 95 167 95H127L129.152 104.325C129.586 106.205 128.158 108 126.229 108Z" stroke="#66d7d1ff"/>
</g>
<g id="MonitorInternal">
<path d="M162 42H78V88H162V42Z" fill="#174d63ff"/>
<path d="M162 42H78V88H162V42Z" stroke="#66d7d1ff"/>
</g>
</g>
<g id="Desktop">
<g id="DesktopCase">
<path d="M50 45H21C18.7909 45 17 46.7909 17 49V105C17 107.209 18.7909 109 21 109H50C52.2091 109 54 107.209 54 105V49C54 46.7909 52.2091 45 50 45Z" fill="#0c2732ff"/>
<path d="M50 45H21C18.7909 45 17 46.7909 17 49V105C17 107.209 18.7909 109 21 109H50C52.2091 109 54 107.209 54 105V49C54 46.7909 52.2091 45 50 45Z" stroke=""/>
</g>
<circle id="DesktopButton" cx="35" cy="95" r="4" fill="#66d7d1ff"/>
<path id="DesktopLine2" d="M28 68H42" stroke="#66d7d1ff" stroke-width="4" stroke-linecap="round"/>
<path id="DesktopLine1" d="M28 58H42" stroke="#66d7d1ff" stroke-width="4" stroke-linecap="round"/>
</g>
<g id="Person">
<g id="Legs">
<path d="M97 152L98.5 192.5H101H108H111L109.5 152H97Z" fill="#5A5A5A"/>
<path d="M109.5 200.5V195H108H101H99.5V200.5H109.5Z" fill="#0c2732ff"/>
<path d="M130.5 195V200.5H140.5V195H139H132H130.5Z" fill="#0c2732ff"/>
<path d="M141.5 192.5L143 152H130.5L129 192.5H132H139H141.5Z" fill="#5A5A5A"/>
<path d="M139 195V192.5H132V195H139Z" fill="#404040"/>
<path d="M101 192.5V195H108V192.5H101Z" fill="#404040"/>
</g>
<path id="Butt" d="M95.5 151L102 131H138L144.5 151H129.5L120 147L111 151H95.5Z" fill="#5A5A5A" stroke="#444343" stroke-width="3"/>
<g id="Arms">
<path d="M152 88L162 99V103.5L159 106.5H141.5L140 98.5H149L145 94L152 88Z" fill="#8D5E40"/>
<path d="M88 88L78 99V103.5L81 106.5H99.5L101 98.5H91L95 94L88 88Z" fill="#8D5E40"/>
</g>
<path id="Shirt" d="M114 68V64.5H126.5V68L136.5 70L153 87L144.5 95L137.5 87V132.5H102.5V87L95.5 95L87 87L103.5 70L114 68Z" fill="#FFF"/>
<path id="Head" d="M117.458 65C114.664 65 112.046 63.6367 110.443 61.3477V61.3477C109.82 60.4574 109.372 59.4565 109.123 58.3986L108.012 53.678C107.672 52.2309 107.5 50.7492 107.5 49.2625V46.3274C107.5 43.8498 108.343 41.446 109.891 39.5113V39.5113C110.949 38.1886 112.301 37.1304 113.839 36.4206L115.73 35.5476C117.226 34.8574 118.853 34.5 120.5 34.5V34.5C122.147 34.5 123.774 34.8574 125.27 35.5476L127.161 36.4206C128.699 37.1304 130.051 38.1886 131.109 39.5113V39.5113C132.657 41.446 133.5 43.8498 133.5 46.3274V49.2625C133.5 50.7492 133.328 52.2309 132.988 53.678L131.877 58.3986C131.628 59.4565 131.18 60.4574 130.557 61.3477V61.3477C128.954 63.6367 126.336 65 123.542 65H117.458Z" fill="#8D5E40"/>
<path id="Hair" d="M133.5 44C123.347 46.2477 117.653 46.4348 107.5 44C108.665 40.5925 110.073 38.6306 114.5 35C119.75 33.158 122.633 32.765 127.5 35C131.298 38.7745 132.662 40.7548 133.5 44Z" fill="#000"/>
<g id="Chair">
<path d="M114 188L114.417 183L99 188L89 200H93L100.5 190.5L114 188Z" fill="#313131"/>
<path d="M126.583 183L127 188L140.5 190.5L148 200H152L142 188L126.583 183Z" fill="#313131"/>
<path d="M137 86H104L100 90L98.1746 147.5L98 153H114H127H143L141 90L137 86Z" fill="#313131"/>
<path d="M123 156.5H118V159L117 166L116 181L114.5 182L114.417 183L114 188L118.5 188.5V186.5L120.5 184L122.5 186.5V188.5L127 188L126.583 183L126.5 182L125 181L124 166L123 159V156.5Z" fill="#313131"/>
<path d="M118.5 200H119.5H121.5H122.5V188.5V186.5L120.5 184L118.5 186.5V188.5V200Z" fill="#313131"/>
<path d="M114 153V156L117 156.5H118H123H124L127 156V153H114Z" fill="#0c2732ff"/>
<path d="M89 200L87 202.5V205.5L89 208H93L95 205.5V202.5L93 200H89Z" fill="#0c2732ff"/>
<path d="M121.5 200H119.5L116.5 202.5V205.5L118.5 208H122.5L124.5 205.5V202.5L121.5 200Z" fill="#0c2732ff"/>
<path d="M154 202.5L152 200H148L146 202.5V205.5L148 208H152L154 205.5V202.5Z" fill="#0c2732ff"/>
<path d="M91 149V143L89.5 142.5L86.5 119.5H84.5L89.5 149H91Z" fill="#313131"/>
<path d="M98 153L98.1746 147.5L91 143V149L98 153Z" fill="#313131"/>
<path d="M142.813 147.112L143.175 153L150.175 149V143L142.813 147.112Z" fill="#313131"/>
<path d="M150.175 143V149H151.675L156.675 119.5H154.675L151.675 142.5L150.175 143Z" fill="#313131"/>
<path d="M151.675 119.5H154.675H156.675H159.175V118H151.675V119.5Z" fill="#66d7d1ff"/>
<path d="M86.5 119.5H89.5V118H82V119.5H84.5H86.5Z" fill="#66d7d1ff"/>
</g>
</g>
<line id="BottomLine" x1="2.98763" y1="210.988" x2="236.988" y2="210.025" stroke="#FFF" stroke-width="6" stroke-linecap="round"/>
</g>
</g>
<defs>
<clipPath id="clip0_135_2">
<rect width="240" height="240" rx="5" fill="#66d7d1ff"/>
</clipPath>
</defs>
</svg>
